<svg width="24" height="24" xmlns="http://www.w3.org/2000/svg">
 <title>messages</title>

 <g>
  <title>background</title>
  <rect fill="none" id="canvas_background" height="402" width="582" y="-1" x="-1"/>
 </g>
 <g>
  <title>Layer 1</title>
  <path stroke="null" id="svg_1" d="m21.579407,1.916818l-1.432752,0c0,-0.818534 -0.644738,-1.488243 -1.432752,-1.488243l-5.731008,0c-0.788014,0 -1.432752,0.669709 -1.432752,1.488243l0,3.472567c0,0.818534 0.644738,1.488243 1.432752,1.488243l0,1.488243l1.432752,-1.488243c0,0.818534 0.644738,1.488243 1.432752,1.488243l3.820672,0l1.432752,1.488243l0,-1.488243l0.477584,0c0.788014,0 1.432752,-0.669709 1.432752,-1.488243l0,-3.472567c0,-0.818534 -0.644738,-1.488243 -1.432752,-1.488243zm-8.596513,3.968648c-0.258851,0 -0.477584,-0.227205 -0.477584,-0.496081l0,-3.472567c0,-0.268876 0.218733,-0.496081 0.477584,-0.496081l5.731008,0c0.258851,0 0.477584,0.227205 0.477584,0.496081l0,0.496081l-3.104296,0c-0.658588,0 -1.19396,0.556107 -1.19396,1.240203l0,2.232365l-1.910336,0zm9.074097,0.992162c0,0.268876 -0.218733,0.496081 -0.477584,0.496081l-5.731008,0c-0.258851,0 -0.477584,-0.227205 -0.477584,-0.496081l0,-3.224527c0,-0.410259 0.321414,-0.744122 0.716376,-0.744122l5.492216,0c0.258851,0 0.477584,0.227205 0.477584,0.496081l0,3.472567z"/>
  <g stroke="null" id="svg_17">
   <g stroke="null" transform="matrix(0.025342895249789946,0,0,0.03027795229636076,-8.72696180635059,-6.298033394764076) " id="svg_15">
    <title stroke="null" transform="translate(0,-3.357862710952759) translate(5.02833890914917,-57.597591400146484) translate(315.1091003417969,0) translate(0,336.2210998535156) ">background</title>
    <rect stroke="null" x="319.137439" y="274.265646" width="582" height="402" id="svg_13" fill="none"/>
   </g>
   <g stroke="null" transform="matrix(0.025342895249789946,0,0,0.03027795229636076,-8.72696180635059,-6.298033394764076) " id="svg_16">
    <title stroke="null" transform="translate(0,-3.357862710952759) translate(5.02833890914917,-57.597591400146484) translate(315.1091003417969,0) translate(0,336.2210998535156) ">Layer 1</title>
    <path stroke="null" d="m996.035439,682.318646l0,-8.208c0,-64.812 -52.729,-117.539 -117.537,-117.539l-139.425,0l0,-50.221c31.634,-8.388 55.018,-37.252 55.018,-71.483c0,-40.781 -33.173,-73.953 -73.952,-73.953c-40.778,0 -73.956,33.172 -73.956,73.953c0,34.231 23.386,63.096 55.017,71.483l0,50.221l-139.424,0c-64.811,0 -117.539,52.728 -117.539,117.539l0,8.208c-45.9,8.871 -80.675,49.351 -80.675,97.797c0,48.509 34.849,89.014 80.819,97.831c3.067,62.093 54.55,111.671 117.395,111.671l316.723,0c62.843,0 114.323,-49.578 117.392,-111.671c45.971,-8.817 80.822,-49.322 80.822,-97.831c-0.001,-48.448 -34.775,-88.926 -80.678,-97.797zm-551.798,156.551c-24.803,-8.013 -42.797,-31.315 -42.797,-58.755c0,-27.434 17.994,-50.735 42.797,-58.75l0,117.505zm239.822,-404.002c0,-19.893 16.183,-36.078 36.078,-36.078c19.893,0 36.078,16.186 36.078,36.078s-16.185,36.078 -36.078,36.078c-19.895,0 -36.078,-16.187 -36.078,-36.078zm274.104,437.211l0,0c-0.001,43.927 -35.74,79.661 -79.665,79.661l-316.722,0c-43.928,0 -79.664,-35.734 -79.664,-79.661l0,-197.968c0,-43.925 35.736,-79.661 79.664,-79.661l316.723,0c43.925,0 79.664,35.736 79.664,79.661l0,197.968zm37.872,-33.209l0,-117.504c24.802,8.015 42.799,31.316 42.799,58.75c0,27.438 -17.997,50.742 -42.799,58.754z" fill="#041C3F" id="svg_12"/>
    <path stroke="null" d="m858.256439,675.876646c-30.806,0 -55.865,25.063 -55.865,55.865c0,30.806 25.061,55.866 55.865,55.866c30.804,0 55.867,-25.062 55.867,-55.866c0,-30.801 -25.063,-55.865 -55.867,-55.865zm0,73.855c-9.92,0 -17.99,-8.065 -17.99,-17.988c0,-9.92 8.07,-17.993 17.99,-17.993c9.921,0 17.992,8.073 17.992,17.993c0,9.921 -8.071,17.988 -17.992,17.988z" fill="#041C3F" id="svg_11"/>
    <path stroke="null" d="m582.018439,675.876646c-30.807,0 -55.866,25.063 -55.866,55.865c0,30.806 25.06,55.866 55.866,55.866c30.803,0 55.866,-25.062 55.866,-55.866c0,-30.801 -25.063,-55.865 -55.866,-55.865zm0,73.855c-9.92,0 -17.991,-8.065 -17.991,-17.988c0,-9.92 8.071,-17.993 17.991,-17.993c9.919,0 17.991,8.073 17.991,17.993c0,9.921 -8.072,17.988 -17.991,17.988z" fill="#041C3F" id="svg_10"/>
    <path stroke="null" d="m771.741439,846.486646l-103.209,0c-10.46,0 -18.939,8.479 -18.939,18.934c0,10.461 8.479,18.938 18.939,18.938l103.211,0c10.457,0 18.937,-8.479 18.937,-18.938c-0.001,-10.457 -8.48,-18.934 -18.939,-18.934z" fill="#041C3F" id="svg_9"/>
   </g>
  </g>
 </g>
</svg>